HIERARCHY
ROOT joint_Root
{
	OFFSET 0.0 0.0 0.0
	CHANNELS 6 Xposition Yposition Zposition Zrotation Xrotation Yrotation 
	JOINT Hips
	{
		OFFSET 4.5925 91.4895 -427.239
		CHANNELS 6 Xposition Yposition Zposition Zrotation Xrotation Yrotation 
		JOINT Spine
		{
			OFFSET 15.7357 0.0 0.0
			CHANNELS 6 Xposition Yposition Zposition Zrotation Xrotation Yrotation 
			JOINT Chest
			{
				OFFSET 8.98455 -0.406207 0.0
				CHANNELS 6 Xposition Yposition Zposition Zrotation Xrotation Yrotation 
				JOINT Neck
				{
					OFFSET 16.3773 0.0 0.0
					CHANNELS 6 Xposition Yposition Zposition Zrotation Xrotation Yrotation 
					JOINT Head
					{
						OFFSET 6.45672 0.0 0.0
						CHANNELS 6 Xposition Yposition Zposition Zrotation Xrotation Yrotation 
						End Site
						{
							OFFSET 0.0 0.0 0.0
						}
					}
				}
				JOINT Shoulder_L
				{
					OFFSET 12.9942 -0.242716 4.98039
					CHANNELS 6 Xposition Yposition Zposition Zrotation Xrotation Yrotation 
					JOINT UpperArm_L
					{
						OFFSET 5.34809 0.0 0.0
						CHANNELS 6 Xposition Yposition Zposition Zrotation Xrotation Yrotation 
						JOINT LowerArm_L
						{
							OFFSET 24.3286 1.87007e-05 0.0
							CHANNELS 6 Xposition Yposition Zposition Zrotation Xrotation Yrotation 
							JOINT Hand_L
							{
								OFFSET 22.2916 0.0 0.0
								CHANNELS 6 Xposition Yposition Zposition Zrotation Xrotation Yrotation 
								End Site
								{
									OFFSET 0.0 0.0 0.0
								}
							}
						}
					}
				}
				JOINT Shoulder_R
				{
					OFFSET 12.9945 -0.242716 -4.98039
					CHANNELS 6 Xposition Yposition Zposition Zrotation Xrotation Yrotation 
					JOINT UpperArm_R
					{
						OFFSET -5.34813 0.0 0.0
						CHANNELS 6 Xposition Yposition Zposition Zrotation Xrotation Yrotation 
						JOINT LowerArm_R
						{
							OFFSET -24.3289 0.000322201 0.0
							CHANNELS 6 Xposition Yposition Zposition Zrotation Xrotation Yrotation 
							JOINT Hand_R
							{
								OFFSET -22.2915 -0.000108084 0.0
								CHANNELS 6 Xposition Yposition Zposition Zrotation Xrotation Yrotation 
								End Site
								{
									OFFSET 0.0 0.0 0.0
								}
							}
						}
					}
				}
			}
		}
		JOINT UpperLeg_L
		{
			OFFSET -2.19248 -6.46944 0.0
			CHANNELS 6 Xposition Yposition Zposition Zrotation Xrotation Yrotation 
			JOINT LowerLeg_L
			{
				OFFSET 39.0811 0.0 -1.23785e-05
				CHANNELS 6 Xposition Yposition Zposition Zrotation Xrotation Yrotation 
				JOINT Foot_L
				{
					OFFSET 40.9854 0.0 -1.26872e-05
					CHANNELS 6 Xposition Yposition Zposition Zrotation Xrotation Yrotation 
					JOINT Toes_L
					{
						OFFSET 11.7543 0.0 0.0
						CHANNELS 6 Xposition Yposition Zposition Zrotation Xrotation Yrotation 
						End Site
						{
							OFFSET 0.0 0.0 0.0
						}
					}
				}
			}
		}
		JOINT UpperLeg_R
		{
			OFFSET -2.19251 6.46944 0.0
			CHANNELS 6 Xposition Yposition Zposition Zrotation Xrotation Yrotation 
			JOINT LowerLeg_R
			{
				OFFSET -39.0811 -0.00228153 -0.0401928
				CHANNELS 6 Xposition Yposition Zposition Zrotation Xrotation Yrotation 
				JOINT Foot_R
				{
					OFFSET -40.9854 0.0 0.0
					CHANNELS 6 Xposition Yposition Zposition Zrotation Xrotation Yrotation 
					JOINT Toes_R
					{
						OFFSET -11.7543 0.0 0.0
						CHANNELS 6 Xposition Yposition Zposition Zrotation Xrotation Yrotation 
						End Site
						{
							OFFSET 0.0 0.0 0.0
						}
					}
				}
			}
		}
	}
}
MOTION
Frames:	6
Frame Time:	0.0333333
0.000000 0.000000 0.000000 0.000000 0.000000 -0.000000 -0.656748 90.360100 3.757970 89.727600 -6.274610 9.390470 15.735700 0.000005 -0.000001 82.938100 82.849500 -82.270800 8.984550 -0.406207 -0.000000 6.439390 -1.760650 1.432240 16.377300 -0.000001 -0.000001 6.860600 -4.597150 2.767250 6.456720 -0.000001 -0.000000 -6.634220 -3.700390 0.431961 12.994200 -0.242716 4.980390 -91.825400 6.893050 -75.128800 5.348090 -0.000007 -0.000001 -60.323200 39.191800 -19.199100 24.328600 0.000019 0.000005 9.201750 25.927900 -20.329400 22.291600 -0.000001 0.000005 7.174700 5.314070 -0.325640 12.994500 -0.242716 -4.980390 88.396700 11.174700 -81.781800 -5.348130 -0.000001 -0.000004 -61.083000 35.554500 -10.377100 -24.328900 0.000322 -0.000009 1.147830 3.556240 -17.916700 -22.291500 -0.000108 -0.000004 12.218400 5.420240 -3.606920 -2.192480 -6.469440 -0.000000 -173.679000 -16.124700 3.053450 39.081100 -0.000007 -0.000012 -0.217419 0.370768 30.387700 40.985400 -0.000006 -0.000013 -0.320160 4.700140 -73.251700 11.754300 -0.000000 0.000003 -0.000106 -0.001079 -16.618900 -2.192510 6.469440 -0.000001 172.646000 20.267900 -176.107000 -39.081100 -0.002282 -0.040193 -0.258505 0.455501 29.889300 -40.985400 0.000008 0.000006 2.979050 14.161300 -73.642100 -11.754300 -0.000006 -0.000006 -0.000773 -0.012133 -17.066700
0.000000 0.000000 0.000000 0.000000 0.000000 -0.000000 -0.693521 90.366800 3.685780 89.742800 -6.012450 9.346270 15.735700 0.000005 -0.000001 82.646300 82.902800 -81.971700 8.984550 -0.406207 -0.000000 6.325110 -1.820000 1.448360 16.377300 -0.000001 -0.000001 7.347840 -4.728500 2.839620 6.456720 -0.000001 -0.000000 -5.947770 -3.918730 0.484115 12.994200 -0.242716 4.980390 -91.816200 6.857100 -75.126400 5.348090 -0.000007 -0.000001 -59.509900 37.765500 -19.949800 24.328600 0.000019 0.000005 9.385100 26.186300 -20.532900 22.291600 -0.000001 0.000005 6.748670 5.315050 -0.353762 12.994500 -0.242716 -4.980390 88.405800 11.060900 -81.745800 -5.348130 -0.000001 -0.000004 -61.263800 35.270900 -9.972060 -24.328900 0.000322 -0.000009 1.191930 3.808580 -17.407000 -22.291500 -0.000108 -0.000004 12.154600 5.418250 -3.540270 -2.192480 -6.469440 -0.000000 -173.718000 -15.961000 2.890420 39.081100 -0.000007 -0.000012 -0.215938 0.367756 30.420900 40.985400 -0.000006 -0.000013 -0.296926 4.829600 -73.188300 11.754300 -0.000000 0.000003 -0.000100 -0.001027 -16.617000 -2.192510 6.469440 -0.000001 172.661000 20.452900 -176.165000 -39.081100 -0.002282 -0.040193 -0.260363 0.458579 29.897700 -40.985400 0.000008 0.000006 2.995760 14.083400 -73.626300 -11.754300 -0.000006 -0.000006 -0.000881 -0.013703 -17.130500
0.000000 0.000000 0.000000 0.000000 0.000000 -0.000000 -0.727696 90.380500 3.598740 89.785900 -5.780090 9.393190 15.735700 0.000005 -0.000001 82.574500 82.928000 -81.897500 8.984550 -0.406207 -0.000000 6.272960 -1.831510 1.452930 16.377300 -0.000001 -0.000001 7.829360 -4.875220 2.901600 6.456720 -0.000001 -0.000000 -5.221040 -4.147720 0.534566 12.994200 -0.242716 4.980390 -91.802600 6.796840 -75.108600 5.348090 -0.000007 -0.000001 -58.491900 36.141000 -20.880700 24.328600 0.000019 0.000005 9.742920 25.998400 -21.390600 22.291600 -0.000001 0.000005 6.765530 5.317010 -0.409707 12.994500 -0.242716 -4.980390 88.408400 10.976300 -81.697300 -5.348130 -0.000001 -0.000004 -61.449600 35.035100 -9.571060 -24.328900 0.000322 -0.000009 1.214340 3.984090 -16.980300 -22.291500 -0.000108 -0.000004 12.158800 5.417820 -3.525730 -2.192480 -6.469440 -0.000000 -173.739000 -15.861400 2.842850 39.081100 -0.000007 -0.000012 -0.216190 0.368439 30.403600 40.985400 -0.000006 -0.000013 -0.285922 4.947320 -73.088200 11.754300 -0.000000 0.000003 -0.000103 -0.001058 -16.618100 -2.192510 6.469440 -0.000001 172.635000 20.593000 -176.143000 -39.081100 -0.002282 -0.040193 -0.256893 0.452572 29.896100 -40.985400 0.000008 0.000006 3.011150 13.993000 -73.593700 -11.754300 -0.000006 -0.000006 -0.000764 -0.011993 -17.061000
0.000000 0.000000 0.000000 0.000000 0.000000 -0.000000 -0.788830 90.386900 3.529430 89.824000 -5.519000 9.438850 15.735700 0.000005 -0.000001 82.512600 82.946500 -81.824200 8.984550 -0.406207 -0.000000 6.234640 -1.842240 1.475670 16.377300 -0.000001 -0.000001 8.366740 -5.004290 2.953310 6.456720 -0.000001 -0.000000 -4.467420 -4.422070 0.563846 12.994200 -0.242716 4.980390 -91.788700 6.755560 -75.132100 5.348090 -0.000007 -0.000001 -57.149400 34.501900 -22.171500 24.328600 0.000019 0.000005 10.008900 25.148800 -22.552700 22.291600 -0.000001 0.000005 6.896790 5.321340 -0.534300 12.994500 -0.242716 -4.980390 88.419200 10.882400 -81.683600 -5.348130 -0.000001 -0.000004 -61.653900 34.834600 -9.199520 -24.328900 0.000322 -0.000009 1.212600 4.053990 -16.681600 -22.291500 -0.000108 -0.000004 12.152300 5.417020 -3.498780 -2.192480 -6.469440 -0.000000 -173.725000 -15.798000 2.795510 39.081100 -0.000007 -0.000012 -0.217575 0.370640 30.414300 40.985400 -0.000006 -0.000013 -0.260885 5.153160 -73.010600 11.754300 -0.000000 0.000003 -0.000091 -0.000953 -16.614200 -2.192510 6.469440 -0.000001 172.574000 20.870600 -176.093000 -39.081100 -0.002282 -0.040193 -0.256388 0.451412 29.911600 -40.985400 0.000008 0.000006 3.060530 13.983000 -73.595600 -11.754300 -0.000006 -0.000006 -0.000938 -0.014526 -17.163900
0.000000 0.000000 0.000000 0.000000 0.000000 -0.000000 -0.833440 90.394600 3.437420 89.863900 -5.272280 9.534860 15.735700 0.000005 -0.000001 82.608600 82.949100 -81.915300 8.984550 -0.406207 -0.000000 6.232420 -1.818290 1.484140 16.377300 -0.000001 -0.000001 8.919360 -5.149690 3.041160 6.456720 -0.000001 -0.000000 -3.677620 -4.714770 0.651406 12.994200 -0.242716 4.980390 -91.762000 6.691460 -75.211600 5.348090 -0.000007 -0.000001 -55.620400 32.784300 -23.813300 24.328600 0.000019 0.000005 10.333400 24.397300 -23.817600 22.291600 -0.000001 0.000005 7.086050 5.327630 -0.716514 12.994500 -0.242716 -4.980390 88.426700 10.823000 -81.678200 -5.348130 -0.000001 -0.000004 -61.859900 34.712000 -8.874300 -24.328900 0.000322 -0.000009 1.197370 4.056440 -16.474300 -22.291500 -0.000108 -0.000004 12.134900 5.416310 -3.475020 -2.192480 -6.469440 -0.000000 -173.712000 -15.731000 2.795070 39.081100 -0.000007 -0.000012 -0.215403 0.366827 30.422100 40.985400 -0.000006 -0.000013 -0.243137 5.316520 -72.926400 11.754300 -0.000000 0.000003 -0.000096 -0.000994 -16.615700 -2.192510 6.469440 -0.000001 172.517000 21.049900 -176.025000 -39.081100 -0.002282 -0.040193 -0.255819 0.449947 29.937800 -40.985400 0.000008 0.000006 3.097780 13.940300 -73.582000 -11.754300 -0.000006 -0.000006 -0.000829 -0.012949 -17.099800
0.000000 0.000000 0.000000 0.000000 0.000000 -0.000000 -0.895070 90.394700 3.361430 89.899800 -5.040820 9.679050 15.735700 0.000005 -0.000001 82.723500 82.932900 -82.026300 8.984550 -0.406207 -0.000000 6.268090 -1.794200 1.491260 16.377300 -0.000001 -0.000001 9.508190 -5.303730 3.148810 6.456720 -0.000001 -0.000000 -2.782400 -5.019410 0.786159 12.994200 -0.242716 4.980390 -91.713100 6.572830 -75.357300 5.348090 -0.000007 -0.000001 -53.993200 30.982300 -25.830300 24.328600 0.000019 0.000005 10.638700 23.862600 -24.906900 22.291600 -0.000001 0.000005 7.215820 5.329800 -0.779659 12.994500 -0.242716 -4.980390 88.441800 10.755600 -81.706900 -5.348130 -0.000001 -0.000004 -62.090800 34.631100 -8.659040 -24.328900 0.000322 -0.000009 1.214270 4.156400 -16.314500 -22.291500 -0.000108 -0.000004 12.131100 5.415590 -3.450930 -2.192480 -6.469440 -0.000000 -173.674000 -15.634800 2.825440 39.081100 -0.000007 -0.000012 -0.216636 0.368262 30.467200 40.985400 -0.000006 -0.000013 -0.230423 5.488640 -72.860100 11.754300 -0.000000 0.000003 -0.000097 -0.001003 -16.616100 -2.192510 6.469440 -0.000001 172.419000 21.319800 -175.889000 -39.081100 -0.002282 -0.040193 -0.254230 0.446303 29.986800 -40.985400 0.000008 0.000006 3.161170 13.950100 -73.600100 -11.754300 -0.000006 -0.000006 -0.000918 -0.014237 -17.152200
